<?xml version="1.0" encoding="utf-8"?>
<svg viewBox="0 0 370 100" xmlns="http://www.w3.org/2000/svg" xmlns:bx="https://boxy-svg.com">
  <rect width="370" height="100" style="paint-order: fill; fill-rule: nonzero; fill: rgb(255, 255, 255);" bx:origin="0 0"/>
  <path d="M 49.094 50.092 L 71.97 82.803 L 59.268 82.803 L 42.624 58.422 L 26.383 82.803 L 14.745 82.803 L 36.761 50.379 L 15.562 19.597 L 28.192 19.597 L 42.977 42.375 L 58.364 19.597 L 69.862 19.597 Z M 98.67 73.789 C 101.294 73.789 104.047 73.475 106.997 72.845 C 109.909 72.257 111.63 71.734 113.816 70.93 L 116.505 69.942 L 116.505 79.466 L 115.866 79.713 L 115.226 79.96 C 111.856 81.26 108.937 82.152 106.066 82.715 C 103.244 83.275 100.269 83.56 97.215 83.56 C 87.586 83.56 80.513 80.93 76.406 75.955 C 72.433 70.891 70.373 62.503 70.373 51.063 C 70.373 40.063 72.79 31.774 77.419 26.529 C 82.117 21.297 89.639 18.566 99.64 18.566 C 102.66 18.566 105.362 18.635 107.735 18.774 C 110.164 18.913 111.729 19.08 113.419 19.334 L 115.12 19.592 L 115.12 28.923 L 112.908 28.687 C 110.973 28.481 109.445 28.355 107.154 28.267 C 104.807 28.178 102.312 28.13 99.64 28.13 C 92.469 28.13 87.745 29.723 85.043 33.183 C 82.275 36.568 80.964 42.425 80.964 51.063 C 80.964 59.811 82.146 65.72 84.722 68.975 C 87.046 72.333 91.626 73.789 98.67 73.789 Z M 124.108 19.597 L 134.491 19.597 L 134.491 45.936 L 164.776 45.936 L 164.776 19.597 L 175.09 19.597 L 175.09 82.803 L 164.776 82.803 L 164.776 55.57 L 134.491 55.57 L 134.491 82.803 L 124.108 82.803 Z M 187.265 82.803 L 187.265 19.597 L 229.31 19.597 L 229.31 29.093 L 197.648 29.093 L 197.648 45.868 L 225.708 45.868 L 225.708 55.157 L 197.648 55.157 L 197.648 72.963 L 230.211 72.963 L 230.211 82.803 Z M 298.849 82.803 L 289.02 82.803 L 289.02 37.922 L 273.047 70.631 L 264.591 70.631 L 248.619 37.798 L 248.619 82.803 L 238.721 82.803 L 238.721 19.597 L 250.881 19.597 L 268.96 57.216 L 287.106 19.597 L 298.849 19.597 Z M 311.031 82.803 L 311.031 19.597 L 353.076 19.597 L 353.076 29.093 L 321.414 29.093 L 321.414 45.868 L 349.473 45.868 L 349.473 55.157 L 321.414 55.157 L 321.414 72.963 L 353.976 72.963 L 353.976 82.803 Z" style="fill: rgb(44, 62, 80);"/>
</svg>