<?xml version="1.0" encoding="utf-8"?>
<svg viewBox="0 0 370 100" xmlns="http://www.w3.org/2000/svg" xmlns:bx="https://boxy-svg.com">
  <rect width="370" height="100" style="paint-order: fill; fill-rule: nonzero; fill: rgb(255, 255, 255);" bx:origin="0 0"/>
  <path d="M 50.094 50.092 L 72.97 82.803 L 60.268 82.803 L 43.624 58.422 L 27.383 82.803 L 15.745 82.803 L 37.761 50.379 L 16.562 19.597 L 29.192 19.597 L 43.977 42.375 L 59.364 19.597 L 70.862 19.597 Z M 99.67 73.789 C 102.294 73.789 105.047 73.475 107.997 72.845 C 110.909 72.257 112.63 71.734 114.816 70.93 L 117.505 69.942 L 117.505 79.466 L 116.866 79.713 L 116.226 79.96 C 112.856 81.26 109.937 82.152 107.066 82.715 C 104.244 83.275 101.269 83.56 98.215 83.56 C 88.586 83.56 81.513 80.93 77.406 75.955 C 73.433 70.891 71.373 62.503 71.373 51.063 C 71.373 40.063 73.79 31.774 78.419 26.529 C 83.117 21.297 90.639 18.566 100.64 18.566 C 103.66 18.566 106.362 18.635 108.735 18.774 C 111.164 18.913 112.729 19.08 114.419 19.334 L 116.12 19.592 L 116.12 28.923 L 113.908 28.687 C 111.973 28.481 110.445 28.355 108.154 28.267 C 105.807 28.178 103.312 28.13 100.64 28.13 C 93.469 28.13 88.745 29.723 86.043 33.183 C 83.275 36.568 81.964 42.425 81.964 51.063 C 81.964 59.811 83.146 65.72 85.722 68.975 C 88.046 72.333 92.626 73.789 99.67 73.789 Z M 125.108 19.597 L 135.491 19.597 L 135.491 45.936 L 165.776 45.936 L 165.776 19.597 L 176.09 19.597 L 176.09 82.803 L 165.776 82.803 L 165.776 55.57 L 135.491 55.57 L 135.491 82.803 L 125.108 82.803 Z M 188.265 82.803 L 188.265 19.597 L 230.31 19.597 L 230.31 29.093 L 198.648 29.093 L 198.648 45.868 L 226.708 45.868 L 226.708 55.157 L 198.648 55.157 L 198.648 72.963 L 231.211 72.963 L 231.211 82.803 Z M 299.849 82.803 L 290.02 82.803 L 290.02 37.922 L 274.047 70.631 L 265.591 70.631 L 249.619 37.798 L 249.619 82.803 L 239.721 82.803 L 239.721 19.597 L 251.881 19.597 L 269.96 57.216 L 288.106 19.597 L 299.849 19.597 Z M 312.031 82.803 L 312.031 19.597 L 354.076 19.597 L 354.076 29.093 L 322.414 29.093 L 322.414 45.868 L 350.473 45.868 L 350.473 55.157 L 322.414 55.157 L 322.414 72.963 L 354.976 72.963 L 354.976 82.803 Z" style="fill: rgb(44, 62, 80);"/>
</svg>